<mxfile host="65bd71144e">
    <diagram id="V3dxcT62WODvvp0AhCno" name="Page-1">
        <mxGraphModel dx="832" dy="599" grid="1" gridSize="10" guides="1" tooltips="1" connect="1" arrows="1" fold="1" page="1" pageScale="1" pageWidth="850" pageHeight="1100" math="0" shadow="0">
            <root>
                <mxCell id="0"/>
                <mxCell id="1" parent="0"/>
                <mxCell id="2" value="From Client" style="rounded=0;whiteSpace=wrap;html=1;" vertex="1" parent="1">
                    <mxGeometry x="120" y="80" width="160" height="40" as="geometry"/>
                </mxCell>
                <mxCell id="4" value="On Server" style="rounded=0;whiteSpace=wrap;html=1;" vertex="1" parent="1">
                    <mxGeometry x="280" y="80" width="240" height="40" as="geometry"/>
                </mxCell>
                <mxCell id="5" value="To Client" style="rounded=0;whiteSpace=wrap;html=1;" vertex="1" parent="1">
                    <mxGeometry x="520" y="80" width="200" height="40" as="geometry"/>
                </mxCell>
                <mxCell id="6" value="request" style="rounded=0;whiteSpace=wrap;html=1;" vertex="1" parent="1">
                    <mxGeometry x="120" y="120" width="160" height="40" as="geometry"/>
                </mxCell>
                <mxCell id="7" value="getRequestedPage" style="rounded=0;whiteSpace=wrap;html=1;" vertex="1" parent="1">
                    <mxGeometry x="120" y="160" width="160" height="40" as="geometry"/>
                </mxCell>
                <mxCell id="8" value="Method" style="rounded=0;whiteSpace=wrap;html=1;" vertex="1" parent="1">
                    <mxGeometry x="120" y="200" width="80" height="40" as="geometry"/>
                </mxCell>
                <mxCell id="9" value="parameters" style="rounded=0;whiteSpace=wrap;html=1;" vertex="1" parent="1">
                    <mxGeometry x="200" y="200" width="80" height="40" as="geometry"/>
                </mxCell>
                <mxCell id="10" value="GET" style="rounded=0;whiteSpace=wrap;html=1;" vertex="1" parent="1">
                    <mxGeometry x="120" y="240" width="80" height="40" as="geometry"/>
                </mxCell>
                <mxCell id="11" value="GET" style="rounded=0;whiteSpace=wrap;html=1;" vertex="1" parent="1">
                    <mxGeometry x="120" y="280" width="80" height="40" as="geometry"/>
                </mxCell>
                <mxCell id="12" value="GET" style="rounded=0;whiteSpace=wrap;html=1;" vertex="1" parent="1">
                    <mxGeometry x="120" y="320" width="80" height="40" as="geometry"/>
                </mxCell>
                <mxCell id="13" value="POST" style="rounded=0;whiteSpace=wrap;html=1;" vertex="1" parent="1">
                    <mxGeometry x="120" y="360" width="80" height="80" as="geometry"/>
                </mxCell>
                <mxCell id="14" value="POST" style="rounded=0;whiteSpace=wrap;html=1;" vertex="1" parent="1">
                    <mxGeometry x="120" y="480" width="80" height="80" as="geometry"/>
                </mxCell>
                <mxCell id="15" value="GET" style="rounded=0;whiteSpace=wrap;html=1;" vertex="1" parent="1">
                    <mxGeometry x="120" y="440" width="80" height="40" as="geometry"/>
                </mxCell>
                <mxCell id="16" value="GET" style="rounded=0;whiteSpace=wrap;html=1;" vertex="1" parent="1">
                    <mxGeometry x="120" y="560" width="80" height="80" as="geometry"/>
                </mxCell>
                <mxCell id="17" value="GET" style="rounded=0;whiteSpace=wrap;html=1;" vertex="1" parent="1">
                    <mxGeometry x="120" y="640" width="80" height="40" as="geometry"/>
                </mxCell>
                <mxCell id="18" value="HOME" style="rounded=0;whiteSpace=wrap;html=1;" vertex="1" parent="1">
                    <mxGeometry x="200" y="240" width="80" height="40" as="geometry"/>
                </mxCell>
                <mxCell id="19" value="ABOUT" style="rounded=0;whiteSpace=wrap;html=1;" vertex="1" parent="1">
                    <mxGeometry x="200" y="280" width="80" height="40" as="geometry"/>
                </mxCell>
                <mxCell id="20" value="CONTACT" style="rounded=0;whiteSpace=wrap;html=1;" vertex="1" parent="1">
                    <mxGeometry x="200" y="320" width="80" height="40" as="geometry"/>
                </mxCell>
                <mxCell id="21" value="CONTACT" style="rounded=0;whiteSpace=wrap;html=1;" vertex="1" parent="1">
                    <mxGeometry x="200" y="360" width="80" height="80" as="geometry"/>
                </mxCell>
                <mxCell id="22" value="REGISTER" style="rounded=0;whiteSpace=wrap;html=1;" vertex="1" parent="1">
                    <mxGeometry x="200" y="440" width="80" height="40" as="geometry"/>
                </mxCell>
                <mxCell id="23" value="REGISTER" style="rounded=0;whiteSpace=wrap;html=1;" vertex="1" parent="1">
                    <mxGeometry x="200" y="480" width="80" height="80" as="geometry"/>
                </mxCell>
                <mxCell id="24" value="LOGIN" style="rounded=0;whiteSpace=wrap;html=1;" vertex="1" parent="1">
                    <mxGeometry x="200" y="560" width="80" height="80" as="geometry"/>
                </mxCell>
                <mxCell id="25" value="LOGOUT" style="rounded=0;whiteSpace=wrap;html=1;" vertex="1" parent="1">
                    <mxGeometry x="200" y="640" width="80" height="40" as="geometry"/>
                </mxCell>
                <mxCell id="26" value="response" style="rounded=0;whiteSpace=wrap;html=1;" vertex="1" parent="1">
                    <mxGeometry x="520" y="120" width="200" height="40" as="geometry"/>
                </mxCell>
                <mxCell id="27" value="showResponsePage" style="rounded=0;whiteSpace=wrap;html=1;" vertex="1" parent="1">
                    <mxGeometry x="520" y="160" width="200" height="40" as="geometry"/>
                </mxCell>
                <mxCell id="28" value="ProcessRequest" style="rounded=0;whiteSpace=wrap;html=1;" vertex="1" parent="1">
                    <mxGeometry x="280" y="120" width="240" height="80" as="geometry"/>
                </mxCell>
                <mxCell id="31" value="" style="rounded=0;whiteSpace=wrap;html=1;" vertex="1" parent="1">
                    <mxGeometry x="280" y="200" width="240" height="120" as="geometry"/>
                </mxCell>
                <mxCell id="32" value="Page" style="rounded=0;whiteSpace=wrap;html=1;" vertex="1" parent="1">
                    <mxGeometry x="520" y="200" width="80" height="40" as="geometry"/>
                </mxCell>
                <mxCell id="33" value="response" style="rounded=0;whiteSpace=wrap;html=1;" vertex="1" parent="1">
                    <mxGeometry x="600" y="200" width="120" height="40" as="geometry"/>
                </mxCell>
                <mxCell id="34" value="CONTACT" style="rounded=0;whiteSpace=wrap;html=1;" vertex="1" parent="1">
                    <mxGeometry x="520" y="320" width="80" height="80" as="geometry"/>
                </mxCell>
                <mxCell id="35" value="HOME" style="rounded=0;whiteSpace=wrap;html=1;" vertex="1" parent="1">
                    <mxGeometry x="520" y="240" width="80" height="40" as="geometry"/>
                </mxCell>
                <mxCell id="37" value="showHomepage" style="rounded=0;whiteSpace=wrap;html=1;" vertex="1" parent="1">
                    <mxGeometry x="600" y="240" width="120" height="40" as="geometry"/>
                </mxCell>
                <mxCell id="38" value="showAboutpage" style="rounded=0;whiteSpace=wrap;html=1;" vertex="1" parent="1">
                    <mxGeometry x="600" y="280" width="120" height="40" as="geometry"/>
                </mxCell>
                <mxCell id="39" value="ABOUT" style="rounded=0;whiteSpace=wrap;html=1;" vertex="1" parent="1">
                    <mxGeometry x="520" y="280" width="80" height="40" as="geometry"/>
                </mxCell>
                <mxCell id="40" value="showContactForm" style="rounded=0;whiteSpace=wrap;html=1;" vertex="1" parent="1">
                    <mxGeometry x="600" y="320" width="120" height="80" as="geometry"/>
                </mxCell>
                <mxCell id="41" value="Thanks" style="rounded=0;whiteSpace=wrap;html=1;" vertex="1" parent="1">
                    <mxGeometry x="520" y="400" width="80" height="40" as="geometry"/>
                </mxCell>
                <mxCell id="42" value="" style="rounded=0;whiteSpace=wrap;html=1;" vertex="1" parent="1">
                    <mxGeometry x="280" y="320" width="240" height="40" as="geometry"/>
                </mxCell>
                <mxCell id="43" value="validateContact" style="rounded=0;whiteSpace=wrap;html=1;" vertex="1" parent="1">
                    <mxGeometry x="280" y="360" width="120" height="80" as="geometry"/>
                </mxCell>
                <mxCell id="44" value="[valid] page = Thanks&lt;br&gt;or&lt;br&gt;[invalid] -no action-" style="rounded=0;whiteSpace=wrap;html=1;" vertex="1" parent="1">
                    <mxGeometry x="400" y="360" width="120" height="80" as="geometry"/>
                </mxCell>
                <mxCell id="45" value="showContactThanks" style="rounded=0;whiteSpace=wrap;html=1;" vertex="1" parent="1">
                    <mxGeometry x="600" y="400" width="120" height="40" as="geometry"/>
                </mxCell>
                <mxCell id="46" value="validateRegister" style="rounded=0;whiteSpace=wrap;html=1;" vertex="1" parent="1">
                    <mxGeometry x="280" y="480" width="120" height="80" as="geometry"/>
                </mxCell>
                <mxCell id="47" value="" style="rounded=0;whiteSpace=wrap;html=1;" vertex="1" parent="1">
                    <mxGeometry x="280" y="440" width="240" height="40" as="geometry"/>
                </mxCell>
                <mxCell id="49" value="[valid] page = Login&lt;br&gt;or&lt;br&gt;[invalid] -no action-" style="rounded=0;whiteSpace=wrap;html=1;" vertex="1" parent="1">
                    <mxGeometry x="400" y="480" width="120" height="80" as="geometry"/>
                </mxCell>
                <mxCell id="50" value="REGISTER" style="rounded=0;whiteSpace=wrap;html=1;" vertex="1" parent="1">
                    <mxGeometry x="520" y="440" width="80" height="80" as="geometry"/>
                </mxCell>
                <mxCell id="51" value="showRegisterForm" style="rounded=0;whiteSpace=wrap;html=1;" vertex="1" parent="1">
                    <mxGeometry x="600" y="440" width="120" height="80" as="geometry"/>
                </mxCell>
                <mxCell id="53" value="Login" style="rounded=0;whiteSpace=wrap;html=1;" vertex="1" parent="1">
                    <mxGeometry x="520" y="520" width="80" height="120" as="geometry"/>
                </mxCell>
                <mxCell id="54" value="showLoginPage" style="rounded=0;whiteSpace=wrap;html=1;" vertex="1" parent="1">
                    <mxGeometry x="600" y="520" width="120" height="80" as="geometry"/>
                </mxCell>
                <mxCell id="55" value="validateLogin" style="rounded=0;whiteSpace=wrap;html=1;" vertex="1" parent="1">
                    <mxGeometry x="280" y="560" width="120" height="80" as="geometry"/>
                </mxCell>
                <mxCell id="56" value="[valid] page =&amp;nbsp; home&lt;br&gt;or&lt;br&gt;[invalid] -no action-" style="rounded=0;whiteSpace=wrap;html=1;" vertex="1" parent="1">
                    <mxGeometry x="400" y="560" width="120" height="80" as="geometry"/>
                </mxCell>
                <mxCell id="58" value="showHomepage" style="rounded=0;whiteSpace=wrap;html=1;" vertex="1" parent="1">
                    <mxGeometry x="600" y="600" width="120" height="80" as="geometry"/>
                </mxCell>
                <mxCell id="59" value="" style="rounded=0;whiteSpace=wrap;html=1;" vertex="1" parent="1">
                    <mxGeometry x="280" y="640" width="240" height="40" as="geometry"/>
                </mxCell>
                <mxCell id="60" value="LOGOUT" style="rounded=0;whiteSpace=wrap;html=1;" vertex="1" parent="1">
                    <mxGeometry x="520" y="640" width="80" height="40" as="geometry"/>
                </mxCell>
            </root>
        </mxGraphModel>
    </diagram>
</mxfile>